<?xml version="1.0" encoding="utf-8"?>
<!-- Generator: Adobe Illustrator 16.0.0, SVG Export Plug-In . SVG Version: 6.00 Build 0)  -->
<!DOCTYPE svg PUBLIC "-//W3C//DTD SVG 1.1//EN" "http://www.w3.org/Graphics/SVG/1.1/DTD/svg11.dtd">
<svg version="1.1" id="图层_1" xmlns="http://www.w3.org/2000/svg" xmlns:xlink="http://www.w3.org/1999/xlink" x="0px" y="0px"
	 width="612px" height="792px" viewBox="0 0 612 792" enable-background="new 0 0 612 792" xml:space="preserve">
<title>4</title>
<rect y="90" fill="none" width="612" height="612"/>
<path fill="#333" d="M573.35,376.152h-97.795c-10.71-40.73-52.41-65.065-93.141-54.355
	c-26.593,6.993-47.361,27.762-54.354,54.355h-45.081c-10.71-40.73-52.411-65.065-93.141-54.355
	c-26.593,6.993-47.362,27.762-54.355,54.355H37.85v38.25h97.508c10.443,40.799,51.983,65.407,92.782,54.964
	c26.985-6.907,48.057-27.979,54.964-54.964h44.824c10.443,40.799,51.983,65.407,92.782,54.964
	c26.985-6.907,48.058-27.979,54.965-54.964h97.675V376.152z"/>
</svg>