<?xml version="1.0" encoding="utf-8"?>
<!-- Generator: Adobe Illustrator 16.0.0, SVG Export Plug-In . SVG Version: 6.00 Build 0)  -->
<!DOCTYPE svg PUBLIC "-//W3C//DTD SVG 1.1//EN" "http://www.w3.org/Graphics/SVG/1.1/DTD/svg11.dtd">
<svg version="1.1" id="图层_1" xmlns="http://www.w3.org/2000/svg" xmlns:xlink="http://www.w3.org/1999/xlink" x="0px" y="0px"
	 width="600px" height="600px" viewBox="0 0 600 600" enable-background="new 0 0 600 600" xml:space="preserve">
<title>10</title>
<!-- <path fill="#333" d="M431.598,254.601c0-69.328-56.18-125.508-125.508-125.508s-125.508,56.18-125.508,125.508
	c0,62.67,45.924,114.606,105.952,124.014v284.986h38.25V378.751C385.201,369.733,431.598,317.587,431.598,254.601z M367.779,316.32
	c-34.082,34.071-89.33,34.061-123.401-0.021c-34.07-34.082-34.061-89.331,0.021-123.401c34.083-34.071,89.331-34.062,123.401,0.021
	c16.355,16.361,25.544,38.547,25.547,61.681C393.41,277.763,384.203,299.988,367.779,316.32z"/> -->
	<path fill="#3335" stroke="#333" stroke-width="15" d="M50,200 550,200 550,400 50,400z "/>
</svg>